<svg width="24" height="24" viewBox="0 0 24 24" fill="none" xmlns="http://www.w3.org/2000/svg">
<path fill-rule="evenodd" clip-rule="evenodd" d="M18.6346 9.55484C18.6346 11.8 17.7302 13.8387 16.2807 15.3613L22.7706 21.671C23.0765 21.9807 23.0765 22.471 22.7706 22.7677C22.6243 22.9226 22.4115 23 22.212 23C22.0125 23 21.813 22.9226 21.6535 22.7677L15.097 16.4065C13.6208 17.4774 11.7989 18.1097 9.8173 18.1097C4.94983 18.1097 1 14.2645 1 9.55484C1 4.84515 4.94983 1 9.8173 1C14.6848 1 18.6346 4.84515 18.6346 9.55484ZM9.8173 2.54839C5.82757 2.54839 2.59589 5.69676 2.59589 9.55484C2.59589 13.4129 5.82757 16.5613 9.8173 16.5613C13.807 16.5613 17.0387 13.4258 17.0387 9.55484C17.0387 5.68387 13.7937 2.54839 9.8173 2.54839Z" fill="#222455"/>
<path d="M16.2807 15.3613L16.0996 15.1889L15.929 15.3681L16.1064 15.5405L16.2807 15.3613ZM22.7706 21.671L22.9485 21.4953L22.9448 21.4917L22.7706 21.671ZM22.7706 22.7677L22.5963 22.5881L22.5889 22.596L22.7706 22.7677ZM21.6535 22.7677L21.4794 22.9472V22.9472L21.6535 22.7677ZM15.097 16.4065L15.2711 16.227L15.1203 16.0807L14.9502 16.2041L15.097 16.4065ZM16.4617 15.5337C17.9522 13.9681 18.8846 11.8689 18.8846 9.55484H18.3846C18.3846 11.7312 17.5082 13.7093 16.0996 15.1889L16.4617 15.5337ZM22.9448 21.4917L16.4549 15.1821L16.1064 15.5405L22.5963 21.8502L22.9448 21.4917ZM22.9447 22.9472C23.3539 22.5501 23.3484 21.9002 22.9484 21.4953L22.5927 21.8467C22.8045 22.0611 22.7991 22.3918 22.5965 22.5883L22.9447 22.9472ZM22.212 23.25C22.4709 23.25 22.7527 23.1507 22.9523 22.9394L22.5889 22.596C22.4959 22.6945 22.3521 22.75 22.212 22.75V23.25ZM21.4794 22.9472C21.6849 23.1466 21.9466 23.25 22.212 23.25V22.75C22.0785 22.75 21.9412 22.6986 21.8275 22.5883L21.4794 22.9472ZM14.9229 16.5859L21.4794 22.9472L21.8275 22.5883L15.2711 16.227L14.9229 16.5859ZM9.8173 18.3597C11.853 18.3597 13.7261 17.71 15.2438 16.6088L14.9502 16.2041C13.5156 17.2449 11.7448 17.8597 9.8173 17.8597V18.3597ZM0.75 9.55484C0.75 14.4094 4.81869 18.3597 9.8173 18.3597V17.8597C5.08098 17.8597 1.25 14.1196 1.25 9.55484H0.75ZM9.8173 0.75C4.81869 0.75 0.75 4.70025 0.75 9.55484H1.25C1.25 4.99005 5.08098 1.25 9.8173 1.25V0.75ZM18.8846 9.55484C18.8846 4.70025 14.8159 0.75 9.8173 0.75V1.25C14.5536 1.25 18.3846 4.99005 18.3846 9.55484H18.8846ZM2.84589 9.55484C2.84589 5.84161 5.95877 2.79839 9.8173 2.79839V2.29839C5.69637 2.29839 2.34589 5.55192 2.34589 9.55484H2.84589ZM9.8173 16.3113C5.95877 16.3113 2.84589 13.2681 2.84589 9.55484H2.34589C2.34589 13.5578 5.69637 16.8113 9.8173 16.8113V16.3113ZM16.7887 9.55484C16.7887 13.2807 13.6761 16.3113 9.8173 16.3113V16.8113C13.9379 16.8113 17.2887 13.571 17.2887 9.55484H16.7887ZM9.8173 2.79839C13.6631 2.79839 16.7887 5.82931 16.7887 9.55484H17.2887C17.2887 5.53844 13.9243 2.29839 9.8173 2.29839V2.79839Z" fill="#222455"/>
</svg>
